<svg version="1.2" xmlns="http://www.w3.org/2000/svg" viewBox="0 0 787 573" width="787" height="573">
	<title>undraw_programming_re_kg9v (1)-svg</title>
	<style>
		.s0 { fill: #f2f2f2 } 
		.s1 { fill: #3f3d56 } 
		.s2 { fill: #20894d } 
		.s3 { fill: #2f2e41 } 
		.s4 { fill: #ffffff } 
		.s5 { fill: #ffb6b6 } 
		.s6 { fill: #e6e6e6 } 
		.s7 { opacity: .2;fill: #000000 } 
	</style>
	<circle id="Layer" class="s0" cx="458.3" cy="74.2" r="26.7"/>
	<path id="Layer" class="s0" d="m544.6 541.8c-39.4-9.8-72.9-34.9-107.5-56-34.7-21.1-74.6-39.3-114.7-32.8-25.4 4.1-48.7 17.8-74.3 21.1-29.6 3.7-59.2-7-84.9-22.1-69.8-41.1-117.9-118.5-119.9-199.5-1.9-81 44.1-162.2 116.4-198.9 72.2-36.6 167.3-24.5 225.6 31.8 35.3 34.1 55.8 80.4 82.4 121.7 26.6 41.3 64.4 80.8 113.2 86.8 24.9 3.1 50.9-2.8 74.7 4.9 28.4 9.2 47.8 36.5 55.7 65.3q0.5 1.8 0.9 3.6c11.9 48.4-7.1 99.2-46.8 129.5-35.1 26.7-82.5 54.1-120.8 44.6z"/>
	<path id="Layer" class="s1" d="m786.8 435.3q-3.2 3.8-6.6 7.6-3.4 3.7-6.9 7.4-3.6 3.6-7.2 7.1-3.6 3.5-7.4 6.8l-730.6-1q-3.7-3.3-7.4-6.8-3.6-3.5-7.1-7.1-3.6-3.7-7-7.4-3.3-3.8-6.6-7.6z"/>
	<path id="Layer" class="s1" d="m495.7 340q0.4-0.7 0.9-1.3 0.6-0.6 1.4-0.9 0.7-0.3 1.5-0.3h127.1q0.8 0 1.5 0.3 0.8 0.3 1.4 0.9 0.5 0.6 0.9 1.3 0.3 0.8 0.3 1.6v85.7q0 0.8-0.3 1.6-0.4 0.7-0.9 1.3-0.6 0.6-1.4 0.9-0.7 0.3-1.5 0.3h-127.1q-0.8 0-1.5-0.3-0.8-0.3-1.4-0.9-0.5-0.6-0.9-1.3-0.3-0.8-0.3-1.6v-85.7q0-0.8 0.3-1.6z"/>
	<path id="Layer" class="s2" d="m498.6 341.8q0.1-0.4 0.5-0.7 0.3-0.3 0.7-0.5 0.4-0.1 0.8-0.1h124.9q0.4 0 0.8 0.1 0.4 0.2 0.8 0.5 0.3 0.3 0.4 0.7 0.2 0.4 0.2 0.9v83.5q0 0.5-0.2 0.9-0.1 0.4-0.4 0.7-0.4 0.3-0.8 0.5-0.4 0.1-0.8 0.1h-124.9q-0.4 0-0.8-0.1-0.4-0.2-0.7-0.5-0.4-0.3-0.5-0.7-0.2-0.4-0.2-0.9v-83.5q0-0.5 0.2-0.9z"/>
	<path id="Layer" class="s3" d="m492.5 443.5q-0.2-0.2-0.2-0.5-0.1-0.2-0.1-0.5 0-0.3 0.1-0.6l2.1-10q0-0.3 0.2-0.6 0.1-0.3 0.3-0.5 0.2-0.2 0.5-0.4 0.2-0.2 0.5-0.3 0.1-0.1 0.2-0.1 0.2 0 0.3 0 0.1-0.1 0.2-0.1 0.1 0 0.2 0h131.8q0.1 0 0.2 0 0.1 0 0.2 0.1 0.2 0 0.3 0 0.1 0 0.2 0.1 0.3 0.1 0.5 0.3 0.3 0.2 0.5 0.4 0.2 0.2 0.3 0.5 0.2 0.3 0.2 0.6l2.2 10q0.1 0.6-0.1 1.1-0.1 0.6-0.5 1-0.3 0.5-0.8 0.7-0.5 0.2-1.1 0.2h-136q-0.3 0-0.5 0-0.3-0.1-0.6-0.2-0.2-0.1-0.4-0.3-0.3-0.2-0.4-0.4-0.2-0.2-0.3-0.5z"/>
	<path id="Layer" class="s1" d="m627.6 433.7c0 0.3-0.2 0.5-0.5 0.5h-3.2c-0.2 0-0.5-0.2-0.5-0.5v-1.5c0-0.3 0.3-0.5 0.5-0.5h3.2c0.3 0 0.5 0.2 0.5 0.5z"/>
	<path id="Layer" class="s1" d="m619.3 433.7c0 0.3-0.3 0.5-0.5 0.5h-3.2c-0.3 0-0.5-0.2-0.5-0.5v-1.5c0-0.3 0.2-0.5 0.5-0.5h3.2c0.2 0 0.5 0.2 0.5 0.5z"/>
	<path id="Layer" class="s1" d="m610.9 433.7c0 0.3-0.2 0.5-0.5 0.5h-3.2c-0.3 0-0.5-0.2-0.5-0.5v-1.5c0-0.3 0.2-0.5 0.5-0.5h3.2c0.3 0 0.5 0.2 0.5 0.5z"/>
	<path id="Layer" class="s1" d="m602.5 433.7c0 0.3-0.2 0.5-0.5 0.5h-3.2c-0.3 0-0.5-0.2-0.5-0.5v-1.5c0-0.3 0.2-0.5 0.5-0.5h3.2c0.3 0 0.5 0.2 0.5 0.5z"/>
	<path id="Layer" class="s1" d="m594.1 433.7c0 0.3-0.2 0.5-0.5 0.5h-3.2c-0.2 0-0.5-0.2-0.5-0.5v-1.5c0-0.3 0.3-0.5 0.5-0.5h3.2c0.3 0 0.5 0.2 0.5 0.5z"/>
	<path id="Layer" class="s1" d="m585.7 433.7c0 0.3-0.2 0.5-0.4 0.5h-3.3c-0.2 0-0.4-0.2-0.4-0.5v-1.5c0-0.3 0.2-0.5 0.4-0.5h3.3c0.2 0 0.4 0.2 0.4 0.5z"/>
	<path id="Layer" class="s1" d="m577.4 433.7c0 0.3-0.2 0.5-0.5 0.5h-3.2c-0.3 0-0.5-0.2-0.5-0.5v-1.5c0-0.3 0.2-0.5 0.5-0.5h3.2c0.3 0 0.5 0.2 0.5 0.5z"/>
	<path id="Layer" class="s1" d="m569 433.7c0 0.3-0.2 0.5-0.5 0.5h-3.2c-0.3 0-0.5-0.2-0.5-0.5v-1.5c0-0.3 0.2-0.5 0.5-0.5h3.2c0.3 0 0.5 0.2 0.5 0.5z"/>
	<path id="Layer" class="s1" d="m560.6 433.7c0 0.3-0.2 0.5-0.5 0.5h-3.2c-0.3 0-0.5-0.2-0.5-0.5v-1.5c0-0.3 0.2-0.5 0.5-0.5h3.2c0.3 0 0.5 0.2 0.5 0.5z"/>
	<path id="Layer" class="s1" d="m552.2 433.7c0 0.3-0.2 0.5-0.4 0.5h-3.3c-0.2 0-0.4-0.2-0.4-0.5v-1.5c0-0.3 0.2-0.5 0.4-0.5h3.3c0.2 0 0.4 0.2 0.4 0.5z"/>
	<path id="Layer" class="s1" d="m543.9 433.7c0 0.3-0.3 0.5-0.5 0.5h-3.2c-0.3 0-0.5-0.2-0.5-0.5v-1.5c0-0.3 0.2-0.5 0.5-0.5h3.2c0.2 0 0.5 0.2 0.5 0.5z"/>
	<path id="Layer" class="s1" d="m535.5 433.7c0 0.3-0.2 0.5-0.5 0.5h-3.2c-0.3 0-0.5-0.2-0.5-0.5v-1.5c0-0.3 0.2-0.5 0.5-0.5h3.2c0.3 0 0.5 0.2 0.5 0.5z"/>
	<path id="Layer" class="s1" d="m527.1 433.7c0 0.3-0.2 0.5-0.5 0.5h-3.2c-0.3 0-0.5-0.2-0.5-0.5v-1.5c0-0.3 0.2-0.5 0.5-0.5h3.2c0.3 0 0.5 0.2 0.5 0.5z"/>
	<path id="Layer" class="s1" d="m518.7 433.7c0 0.3-0.2 0.5-0.5 0.5h-3.2c-0.2 0-0.5-0.2-0.5-0.5v-1.5c0-0.3 0.3-0.5 0.5-0.5h3.2c0.3 0 0.5 0.2 0.5 0.5z"/>
	<path id="Layer" class="s1" d="m510.4 433.7c0 0.3-0.3 0.5-0.5 0.5h-3.2c-0.3 0-0.5-0.2-0.5-0.5v-1.5c0-0.3 0.2-0.5 0.5-0.5h3.2c0.2 0 0.5 0.2 0.5 0.5z"/>
	<path id="Layer" class="s1" d="m502 433.7c0 0.3-0.2 0.5-0.5 0.5h-3.2c-0.3 0-0.5-0.2-0.5-0.5v-1.5c0-0.3 0.2-0.5 0.5-0.5h3.2c0.3 0 0.5 0.2 0.5 0.5z"/>
	<path id="Layer" class="s1" d="m627.7 437.9c0 0.3-0.2 0.5-0.5 0.5h-3.2c-0.2 0-0.5-0.2-0.5-0.5v-1.5c0-0.3 0.3-0.5 0.5-0.5h3.2c0.3 0 0.5 0.2 0.5 0.5z"/>
	<path id="Layer" class="s1" d="m619.4 437.9c0 0.3-0.3 0.5-0.5 0.5h-3.2c-0.3 0-0.5-0.2-0.5-0.5v-1.5c0-0.3 0.2-0.5 0.5-0.5h3.2c0.2 0 0.5 0.2 0.5 0.5z"/>
	<path id="Layer" class="s1" d="m611 437.9c0 0.3-0.2 0.5-0.5 0.5h-3.2c-0.3 0-0.5-0.2-0.5-0.5v-1.5c0-0.3 0.2-0.5 0.5-0.5h3.2c0.3 0 0.5 0.2 0.5 0.5z"/>
	<path id="Layer" class="s1" d="m602.6 437.9c0 0.3-0.2 0.5-0.5 0.5h-3.2c-0.3 0-0.5-0.2-0.5-0.5v-1.5c0-0.3 0.2-0.5 0.5-0.5h3.2c0.3 0 0.5 0.2 0.5 0.5z"/>
	<path id="Layer" class="s1" d="m594.2 437.9c0 0.3-0.2 0.5-0.5 0.5h-3.2c-0.2 0-0.5-0.2-0.5-0.5v-1.5c0-0.3 0.3-0.5 0.5-0.5h3.2c0.3 0 0.5 0.2 0.5 0.5z"/>
	<path id="Layer" class="s1" d="m585.8 437.9c0 0.3-0.2 0.5-0.4 0.5h-3.3c-0.2 0-0.4-0.2-0.4-0.5v-1.5c0-0.3 0.2-0.5 0.4-0.5h3.3c0.2 0 0.4 0.2 0.4 0.5z"/>
	<path id="Layer" class="s1" d="m577.5 437.9c0 0.3-0.2 0.5-0.5 0.5h-3.2c-0.3 0-0.5-0.2-0.5-0.5v-1.5c0-0.3 0.2-0.5 0.5-0.5h3.2c0.3 0 0.5 0.2 0.5 0.5z"/>
	<path id="Layer" class="s1" d="m569.1 437.9c0 0.3-0.2 0.5-0.5 0.5h-3.2c-0.3 0-0.5-0.2-0.5-0.5v-1.5c0-0.3 0.2-0.5 0.5-0.5h3.2c0.3 0 0.5 0.2 0.5 0.5z"/>
	<path id="Layer" class="s1" d="m560.7 437.9c0 0.3-0.2 0.5-0.5 0.5h-3.2c-0.3 0-0.5-0.2-0.5-0.5v-1.5c0-0.3 0.2-0.5 0.5-0.5h3.2c0.3 0 0.5 0.2 0.5 0.5z"/>
	<path id="Layer" class="s1" d="m552.3 437.9c0 0.3-0.2 0.5-0.4 0.5h-3.3c-0.2 0-0.5-0.2-0.5-0.5v-1.5c0-0.3 0.3-0.5 0.5-0.5h3.3c0.2 0 0.4 0.2 0.4 0.5z"/>
	<path id="Layer" class="s1" d="m544 437.9c0 0.3-0.3 0.5-0.5 0.5h-3.2c-0.3 0-0.5-0.2-0.5-0.5v-1.5c0-0.3 0.2-0.5 0.5-0.5h3.2c0.2 0 0.5 0.2 0.5 0.5z"/>
	<path id="Layer" class="s1" d="m535.6 437.9c0 0.3-0.2 0.5-0.5 0.5h-3.2c-0.3 0-0.5-0.2-0.5-0.5v-1.5c0-0.3 0.2-0.5 0.5-0.5h3.2c0.3 0 0.5 0.2 0.5 0.5z"/>
	<path id="Layer" class="s1" d="m527.2 437.9c0 0.3-0.2 0.5-0.5 0.5h-3.2c-0.3 0-0.5-0.2-0.5-0.5v-1.5c0-0.3 0.2-0.5 0.5-0.5h3.2c0.3 0 0.5 0.2 0.5 0.5z"/>
	<path id="Layer" class="s1" d="m518.8 437.9c0 0.3-0.2 0.5-0.5 0.5h-3.2c-0.2 0-0.5-0.2-0.5-0.5v-1.5c0-0.3 0.3-0.5 0.5-0.5h3.2c0.3 0 0.5 0.2 0.5 0.5z"/>
	<path id="Layer" class="s1" d="m510.5 437.9c0 0.3-0.3 0.5-0.5 0.5h-3.2c-0.3 0-0.5-0.2-0.5-0.5v-1.5c0-0.3 0.2-0.5 0.5-0.5h3.2c0.2 0 0.5 0.2 0.5 0.5z"/>
	<path id="Layer" class="s1" d="m502.1 437.9c0 0.3-0.2 0.5-0.5 0.5h-3.2c-0.3 0-0.5-0.2-0.5-0.5v-1.5c0-0.3 0.2-0.5 0.5-0.5h3.2c0.3 0 0.5 0.2 0.5 0.5z"/>
	<path id="Layer" class="s1" d="m587.5 443c0 0.2-0.2 0.4-0.5 0.4h-32.5c-0.3 0-0.5-0.2-0.5-0.4v-1.6c0-0.2 0.2-0.5 0.5-0.5h32.5c0.3 0 0.5 0.3 0.5 0.5z"/>
	<rect id="Layer" class="s4" x="515.6" y="358.7" width="6" height="3.1" rx="1.6"></rect>
	<rect id="Layer" class="s4" x="548.2" y="358.7" width="6" height="3.1" rx="1.6"></rect>
	<rect id="Layer" class="s4" x="557.4" y="358.7" width="6" height="3.1" rx="1.6"></rect>
	<rect id="Layer" class="s4" x="524.5" y="358.5" width="20.8" height="3.1" rx="1.6"></rect>
	<rect id="Layer" class="s4" x="567.8" y="358.5" width="20.8" height="3.1" rx="1.6"></rect>
	<rect id="Layer" class="s4" x="524.3" y="365.8" width="6" height="3.1" rx="1.6"></rect>
	<rect id="Layer" class="s4" x="556.8" y="365.8" width="6" height="3.1" rx="1.6"></rect>
	<rect id="Layer" class="s4" x="566" y="365.8" width="6" height="3.1" rx="1.6"></rect>
	<rect id="Layer" class="s4" x="533.2" y="365.5" width="20.8" height="3.1" rx="1.6"></rect>
	<rect id="Layer" class="s4" x="576.5" y="365.5" width="20.8" height="3.1" rx="1.6"></rect>
	<rect id="Layer" class="s4" x="533" y="372.8" width="6" height="3.1" rx="1.6"></rect>
	<rect id="Layer" class="s4" x="565.5" y="372.8" width="6" height="3.1" rx="1.6"></rect>
	<rect id="Layer" class="s4" x="574.7" y="372.8" width="6" height="3.1" rx="1.6"></rect>
	<rect id="Layer" class="s4" x="541.8" y="372.6" width="20.8" height="3.1" rx="1.6"></rect>
	<rect id="Layer" class="s4" x="585.2" y="372.6" width="20.8" height="3.1" rx="1.6"></rect>
	<rect id="Layer" class="s4" x="541.6" y="379.9" width="6" height="3.1" rx="1.6"></rect>
	<rect id="Layer" class="s4" x="574.2" y="379.9" width="6" height="3.1" rx="1.6"></rect>
	<rect id="Layer" class="s4" x="583.4" y="379.9" width="6" height="3.1" rx="1.6"></rect>
	<rect id="Layer" class="s4" x="550.5" y="379.6" width="20.8" height="3.1" rx="1.6"></rect>
	<rect id="Layer" class="s4" x="548.2" y="407.9" width="6" height="3.1" rx="1.6"></rect>
	<rect id="Layer" class="s4" x="557.4" y="407.9" width="6" height="3.1" rx="1.6"></rect>
	<rect id="Layer" class="s4" x="567.8" y="408.2" width="20.8" height="3.1" rx="1.6"></rect>
	<rect id="Layer" class="s4" x="515.6" y="407.9" width="6" height="3.1" rx="1.6"></rect>
	<rect id="Layer" class="s4" x="524.5" y="408.2" width="20.8" height="3.1" rx="1.6"></rect>
	<rect id="Layer" class="s4" x="524.3" y="400.9" width="6" height="3.1" rx="1.6"></rect>
	<rect id="Layer" class="s4" x="556.8" y="400.9" width="6" height="3.1" rx="1.6"></rect>
	<rect id="Layer" class="s4" x="566" y="400.9" width="6" height="3.1" rx="1.6"></rect>
	<rect id="Layer" class="s4" x="533.2" y="401.1" width="20.8" height="3.1" rx="1.6"></rect>
	<rect id="Layer" class="s4" x="533" y="393.8" width="6" height="3.1" rx="1.6"></rect>
	<rect id="Layer" class="s4" x="565.5" y="393.8" width="6" height="3.1" rx="1.6"></rect>
	<rect id="Layer" class="s4" x="574.7" y="393.8" width="6" height="3.1" rx="1.6"></rect>
	<rect id="Layer" class="s4" x="541.8" y="394.1" width="20.8" height="3.1" rx="1.6"></rect>
	<rect id="Layer" class="s4" x="541.6" y="386.8" width="6" height="3.1" rx="1.6"></rect>
	<rect id="Layer" class="s4" x="574.2" y="386.8" width="6" height="3.1" rx="1.6"></rect>
	<rect id="Layer" class="s4" x="583.4" y="386.8" width="6" height="3.1" rx="1.6"></rect>
	<rect id="Layer" class="s4" x="550.5" y="387" width="20.8" height="3.1" rx="1.6"></rect>
	<path id="Layer" class="s5" d="m504.9 490.5l-13.3-21.1 41.9-33.4 17.3-19.2c2.2-2.5 5.1-4.3 8.3-5.4 3.2-1 6.6-1.2 9.8-0.5 3.3 0.7 6.4 2.2 8.9 4.5 2.5 2.2 4.3 5.1 5.4 8.2 0.8 2.4 1.1 4.8 0.9 7.3-0.2 2.5-0.8 4.9-1.9 7.1-1 2.2-2.5 4.2-4.3 5.8-1.9 1.7-4 3-6.3 3.8l-27.3 10.1z"/>
	<path id="Layer" fill-rule="evenodd" class="s3" d="m192 336.2q0.2-0.7 0.7-1.2 0.5-0.5 1.1-0.7 0.7-0.3 1.4-0.3h64.9q0.1 0 0.2 0 0.2 0 0.3 0.1 0.1 0 0.3 0 0.1 0 0.2 0.1 0.5 0.1 1 0.5 0.4 0.3 0.8 0.7 0.3 0.5 0.5 1 0.1 0.5 0.1 1.1v102.5h-71.8v-102.5q0-0.7 0.3-1.3zm27.7 48.4c0 2 0.9 4 2.3 5.4 1.4 1.4 3.4 2.3 5.4 2.3 2 0 4-0.9 5.4-2.3 1.4-1.4 2.3-3.4 2.3-5.4v-11.9c0-2-0.9-3.9-2.3-5.4-1.4-1.4-3.4-2.2-5.4-2.2-2 0-4 0.8-5.4 2.2-1.4 1.5-2.3 3.4-2.3 5.4z"/>
	<path id="Layer" class="s1" d="m263.8 436.8v9.9q0 0.3-0.2 0.7-0.1 0.3-0.4 0.6-0.3 0.3-0.6 0.4-0.4 0.2-0.8 0.2h-68.4q-0.4 0-0.7-0.2-0.4-0.1-0.7-0.4-0.2-0.3-0.4-0.6-0.1-0.4-0.1-0.7v-9.9z"/>
	<path id="Layer" class="s1" d="m79.4 179.5c0.4-1.1 1.1-2.1 1.9-2.9 0.8-0.8 1.8-1.5 2.9-1.9 1.1-0.5 2.3-0.7 3.5-0.7h277.5c1.1 0 2.3 0.2 3.4 0.7 1.1 0.4 2.1 1.1 2.9 1.9 0.9 0.8 1.5 1.8 2 2.9 0.4 1.1 0.7 2.3 0.7 3.5v187.2c0 1.2-0.3 2.4-0.7 3.5-0.5 1.1-1.1 2-2 2.9-0.8 0.8-1.8 1.5-2.9 1.9-1.1 0.5-2.3 0.7-3.4 0.7h-277.5c-1.2 0-2.4-0.2-3.5-0.7-1.1-0.4-2.1-1.1-2.9-1.9-0.8-0.9-1.5-1.8-2-2.9-0.4-1.1-0.6-2.3-0.6-3.5v-187.2c0-1.2 0.2-2.4 0.7-3.5z"/>
	<path id="Layer" class="s4" d="m85.5 183.4q0.4-0.8 1.1-1.5 0.7-0.7 1.5-1.1 0.9-0.3 1.9-0.3h272.8q1 0 1.9 0.3 0.9 0.4 1.6 1.1 0.6 0.7 1 1.5 0.4 0.9 0.4 1.9v182.6q0 1-0.4 1.9-0.4 0.8-1.1 1.5-0.6 0.7-1.5 1.1-0.9 0.3-1.9 0.3h-272.8q-1 0-1.9-0.3-0.8-0.4-1.5-1.1-0.7-0.7-1.1-1.5-0.3-0.9-0.3-1.9v-182.6q0-1 0.3-1.9z"/>
	<path id="Layer" class="s3" d="m135.5 447.4q-0.2-0.3-0.3-0.7-0.1-0.3-0.1-0.6 0-0.3 0.1-0.7l2.5-11.9q0.1-0.4 0.3-0.7 0.1-0.4 0.4-0.7 0.2-0.2 0.5-0.5 0.3-0.2 0.7-0.3 0.1-0.1 0.2-0.1 0.2 0 0.3-0.1 0.1 0 0.3 0 0.1 0 0.2 0h157.3q0.2 0 0.3 0 0.2 0 0.3 0 0.1 0.1 0.3 0.1 0.1 0 0.2 0.1 0.4 0.1 0.7 0.3 0.3 0.3 0.5 0.5 0.3 0.3 0.4 0.7 0.2 0.3 0.3 0.7l2.5 11.9q0.1 0.7 0 1.3-0.2 0.7-0.6 1.2-0.4 0.5-1 0.8-0.7 0.3-1.3 0.3h-162.4q-0.3 0-0.6 0-0.4-0.1-0.7-0.3-0.3-0.1-0.5-0.3-0.3-0.2-0.5-0.5-0.2-0.2-0.3-0.5z"/>
	<path id="Layer" class="s1" d="m354 205.6h-255.3q-0.4 0-0.7-0.3-0.3-0.3-0.3-0.7 0-0.4 0.3-0.7 0.3-0.3 0.7-0.3h255.3q0.4 0 0.7 0.3 0.3 0.3 0.3 0.7 0 0.4-0.3 0.7-0.3 0.3-0.7 0.3z"/>
	<ellipse id="Layer" class="s1" cx="116.1" cy="192.3" rx="6" ry="6.1"/>
	<ellipse id="Layer" class="s1" cx="136.6" cy="192.3" rx="6" ry="6.1"/>
	<ellipse id="Layer" class="s1" cx="157.2" cy="192.3" rx="6" ry="6.1"/>
	<path id="Layer" class="s1" d="m342.4 188.1c0.2 0.2 0.3 0.5 0.3 0.8 0 0.2-0.1 0.5-0.3 0.7-0.2 0.2-0.5 0.4-0.8 0.4h-14.6c-0.3 0-0.5-0.2-0.7-0.4-0.3-0.2-0.4-0.5-0.4-0.7 0-0.3 0.1-0.6 0.4-0.8 0.2-0.2 0.4-0.3 0.7-0.3h14.6c0.3 0 0.6 0.1 0.8 0.3z"/>
	<path id="Layer" class="s1" d="m342.4 192.2c0.2 0.2 0.3 0.5 0.3 0.8 0 0.3-0.1 0.6-0.3 0.8-0.2 0.2-0.5 0.3-0.8 0.3h-14.6c-0.3 0-0.5-0.1-0.7-0.3-0.3-0.2-0.4-0.5-0.4-0.8 0-0.3 0.1-0.6 0.4-0.8 0.2-0.2 0.4-0.3 0.7-0.3h14.6c0.3 0 0.6 0.1 0.8 0.3z"/>
	<path id="Layer" class="s1" d="m342.4 196.4c0.2 0.2 0.3 0.5 0.3 0.8 0 0.2-0.1 0.5-0.3 0.7-0.2 0.2-0.5 0.4-0.8 0.4h-14.6c-0.3 0-0.5-0.2-0.7-0.4-0.3-0.2-0.4-0.5-0.4-0.7 0-0.3 0.1-0.6 0.4-0.8 0.2-0.2 0.4-0.3 0.7-0.3h14.6c0.3 0 0.6 0.1 0.8 0.3z"/>
	<path id="Layer" fill-rule="evenodd" class="s3" d="m686.5 389.1q-0.4-1.3-0.3-2.7 0.2-1.4 0.9-2.6 0.7-1.1 1.8-1.9 1.1-0.8 2.5-1.1 0.1 0 0.2 0 0.2-0.1 0.3-0.1 0.1 0 0.2 0 0.2 0 0.3 0l40.7-1.1q0.7 0 1.4 0.2 0.7 0.1 1.3 0.4 0.6 0.2 1.2 0.6 0.6 0.4 1 0.9 0.2 0 0.4 0 0.3-0.1 0.5-0.1 0.2 0 0.4 0 0.2 0 0.5 0c2.5-0.1 5 0.9 6.9 2.6 1.8 1.8 2.9 4.2 3 6.8 0 2.5-0.9 5-2.7 6.9-1.8 1.8-4.2 2.9-6.8 3q-0.5 0-1.1-0.1-0.5 0-1-0.1-0.6-0.1-1.1-0.3-0.5-0.2-1-0.4l-3.7 40.1q-0.3 1-0.9 1.8-0.6 0.9-1.4 1.5-0.8 0.6-1.7 1-1 0.3-2 0.4l-26.5 0.6q-1 0-2-0.2-1-0.3-1.8-0.9-0.8-0.6-1.5-1.4-0.6-0.8-0.9-1.8zm51 8.6q0.5 0.1 0.9 0.3 0.4 0.1 0.9 0.1 0.4 0 0.8 0c1.9 0 3.6-0.8 4.9-2.1 1.2-1.3 1.9-3.1 1.9-4.9-0.1-1.9-0.8-3.6-2.2-4.9-1.3-1.2-3.1-1.9-4.9-1.9-0.1 0-0.2 0.1-0.4 0.1q0.1 0.4 0.2 0.8 0.1 0.4 0.1 0.9-0.1 0.4-0.1 0.8-0.1 0.4-0.2 0.9l-2.6 9.5q0.3 0.2 0.7 0.4z"/>
	<path id="Layer" class="s1" d="m691.6 380.8q0.2-0.1 0.3-0.1 0.1 0 0.2 0 0.2 0 0.3 0l40.7-1.1q0.3 0 0.5 0 0.2 0.1 0.5 0.1 0.2 0 0.4 0.1 0.3 0 0.5 0.1c-1.6 4.5-10.5 8.3-21.2 8.8-11.8 0.6-21.5-2.9-22.4-7.9q0.1 0 0.2 0z"/>
	<path id="Layer" class="s2" d="m715.6 419q-0.2 0-0.3-0.2 0-0.2 0-0.4 0.1-0.1 0.2-0.2l5.1-3.4-5.3-3.5q-0.2-0.1-0.2-0.3-0.1-0.2 0-0.4 0.2-0.1 0.4-0.2 0.2 0 0.3 0.1l6 3.9q0.1 0.1 0.2 0.2 0 0.1 0 0.2 0 0.1 0 0.3-0.1 0.1-0.2 0.1l-5.7 3.8q-0.1 0-0.1 0 0 0 0 0 0 0.1-0.1 0.1 0 0 0 0-0.2 0-0.3-0.1z"/>
	<path id="Layer" class="s2" d="m706.7 419.5q0 0-0.1 0 0 0-0.1 0 0 0-0.1-0.1l-5.9-3.4q-0.1 0-0.2-0.1-0.1-0.2-0.1-0.3 0-0.1 0.1-0.2 0-0.1 0.1-0.2l5.8-4.3q0.1-0.1 0.3-0.1 0.2 0.1 0.4 0.2 0.1 0.2 0.1 0.4-0.1 0.2-0.2 0.3l-5.2 3.8 5.3 3.1q0.2 0.1 0.2 0.2 0.1 0.1 0.1 0.3 0 0.1-0.1 0.2-0.1 0.2-0.3 0.2 0 0-0.1 0z"/>
	<path id="Layer" class="s2" d="m715.2 422.4q-0.1 0-0.2 0-0.1-0.1-0.1-0.1-0.1-0.1-0.1-0.2l-8.2-13.4q-0.1-0.1 0-0.3 0-0.2 0.2-0.3 0.2-0.2 0.4-0.1 0.2 0 0.3 0.2l8.1 13.4q0.1 0.1 0.1 0.2 0 0.1 0 0.2 0 0.1-0.1 0.2 0 0.1-0.1 0.1 0 0-0.1 0 0 0 0 0 0 0.1 0 0.1 0 0-0.1 0 0 0-0.1 0z"/>
	<rect id="Layer" class="s2" x="209.4" y="260.8" width="50.7" height="10.8" rx="3.3"></rect>
	<rect id="Layer" class="s6" x="183.6" y="282.5" width="102.2" height="10.8" rx="3.3"></rect>
	<rect id="Layer" class="s6" x="183.6" y="304.2" width="102.2" height="10.8" rx="3.3"></rect>
	<path id="Layer" class="s1" d="m350.7 338.4l9.1-12.6q0.7-1 1.7-1.9 1-0.8 2.2-1.4 1.1-0.6 2.4-0.9 1.3-0.3 2.6-0.3l33.5 0.1q1.6 0 3.2 0.5 1.6 0.5 2.9 1.4 1.4 1 2.4 2.3 1 1.2 1.6 2.8l2.8 7 50.8 25.2 0.9 0.4 0.7 1.2-9.6 60.8-6.2 38.7c0 0 0.7 6.5 1.6 16.8q0.2 2.2 0.4 4.6c1.4 16.2 3.4 7.4 4.9 30.2 0.3 3.7-4.3 7.2-4.1 10.8 0.3 4.9 5.4 9.9 5.6 14.5 0.5 9.5 0.9 18.4 1 26q-6.9 1.6-13.9 3-6.9 1.3-13.9 2.2-7.1 1-14.1 1.6-7.1 0.5-14.2 0.7-3.8 0.2-7.7 0.2-1.9 0-3.8-0.1-0.6 0-1.2 0-1.7 0-3.5-0.1-8.5-0.2-17-1-8.5-0.9-17-2.2-8.4-1.4-16.8-3.3-8.3-1.9-16.5-4.3-0.5-0.1-0.9-0.3-2.2-0.6-4.3-1.3-10-3.1-19.6-7c4.4-5.7 9.8-11.7 14.4-17.6 8-10.3 9.5 7.7 9.5 7.7l-3.2-11.9 2.9-7.3-1.1-53.7-0.1-6.7-14.1-42.9-7.5-22.9-6.6-19.8v-0.1l-0.2-0.7z"/>
	<path id="Layer" class="s1" d="m326.8 453.7l-7.6 16.2-5.1 11.1-9 46.6-4.4 4.8-3.8-16.8-40 8.9c-1.3-7.3-0.4 0.2-1.2-7.8q0.3-0.3 0.7-0.7c0.6-0.6 1.2-1.1 1.2-1.6-0.5-27.6 0.9-74.6 12.3-103q0.7-1.8 1.5-3.4 0.7-1.7 1.6-3.4 0.9-1.6 1.9-3.2 1-1.6 2-3.1 0.4-0.5 0.7-0.9c5.3-7.4 8.6-14.7 13.3-19.9q0 0 0 0 0.1 0 0.1 0 0 0 0 0 0 0 0 0 0-0.1 0-0.1 0 0 0 0 0 0 0 0 0 0 0.1 0l32.4-17.2 1.4 39.1 1 28.1z"/>
	<path id="Layer" class="s1" d="m465.9 360.6l0.9 0.4 0.7 1.2 12.1 19.8q0 0 0 0.1c5 5.4 8.4 13.1 14.1 20.8 17.9 24.4 19.9 83.6 19.4 116.1-0.1 0.5 0.5 1.1 1.1 1.7 1.5 1.3 2.8 3 3.8 4.8 0.9 1.8 1.6 3.8 1.9 5.8 0.3 2.1 0.2 4.1-0.2 6.2-0.4 2-1.2 3.9-2.2 5.7l-9.5-30.1-32.4 6.7-1.8 0.4-3.9 16.8-4.4-4.8-8.9-46.6-3.3-7.1-9.5-20.2z"/>
	<circle id="a657ec4b-47ce-4d2a-9c58-81a811696ca9" class="s5" cx="386.4" cy="267.2" r="44.6"/>
	<path id="Layer" class="s3" d="m447.2 237q0.2 0.5 0.3 1 0.1 0.6 0 1.1-0.2 0.5-0.4 1c-2.5 4.4-4.2 8.4-9 11.4q-0.8 0.4-1.6 0.8-0.9 0.5-1.7 0.8-0.8 0.4-1.7 0.7-0.9 0.3-1.8 0.5-0.7 0.2-1.5 0.4 0 0-0.1 0-0.1 0.1-0.2 0.1-0.1 0-0.1 0-0.1 0-0.2 0.1c-17.4 4.4 8.7 27.2-10.1 24.3 0.9 3.7 1.8 7.7 1.3 11.7-0.5 4-1.6 6.7-6.5 11.3q0 0.1-0.1 0.1c-1 1-2.2 2-3.5 3.2-0.8 1.6-3.5 2.6-7.4 3.1l-0.4 2.6c-10.8 1.4-26.1 1.8-37.6-2.3-6.4-2.3-15.3-9.1-14-12.2 0.5-1-0.8-2-2-2.7l0.2 0.4c-1.1-0.5-1.2-2.2-1.8-3-7.7-11.1-11.4-25.8-11-43.7 0.2-7.6 1-17.4 6.3-25.1 4.5-6.5 13.6-11.7 22-9.1-0.4-3.4 1.9-6.8 4.6-8.5 3.2-1.9 7-2.3 10.4-2.6 8.6-0.8 17.5-1.6 26.2 0 9.7 1.9 17.7 6.9 21.8 13.8l0.1 0.2 0.8 4.1q0.1 0.4 0.3 0.8 0.2 0.4 0.4 0.7 0.3 0.4 0.6 0.6 0.3 0.3 0.7 0.5 0.3 0.2 0.7 0.3 0.4 0.2 0.9 0.2 0.4 0 0.8 0 0.4-0.1 0.8-0.3 0.9-0.3 1.8-0.1 0.9 0.1 1.7 0.7 0.7 0.6 1 1.5 0.4 0.8 0.2 1.8l-0.2 1.6 2.4-0.5c0.7-0.1 1.3 0 1.9 0.2 0.6 0.2 1.1 0.5 1.5 1 0.4 0.5 0.7 1.1 0.8 1.7 0.1 0.6 0 1.2-0.2 1.8l-0.7 1.9q0.4 0 0.8 0.1 0.4 0.1 0.7 0.2 0.3 0.2 0.7 0.4 0.3 0.2 0.5 0.5 0.4 0.4 0.6 0.9z"/>
	<path id="Layer" class="s3" d="m544 461.4c0 1.8 0 4.2-0.1 7.3q0 0.6 0 1.3c-0.2 5.5-0.3 10.2-0.5 15.4q0 0.5-0.1 1.1c-0.2 7.2-0.7 15.6-1.4 29-1.4 24.6-3.9 3.4-6.4 12q-0.2 0.7-0.3 1.6-0.2 0.8-0.4 1.6-0.2 0.8-0.4 1.6-0.2 0.8-0.5 1.5-0.3 0.8-0.6 1.6c-1.3 0.8-2.7 1.5-4 2.3q-5.7 3.1-11.5 6-3.3 1.7-6.6 3.2-0.5 0.2-1 0.5-4.3 1.9-8.5 3.7-4.3 1.8-8.7 3.5-4.3 1.7-8.7 3.2-4.4 1.5-8.9 2.8-3.5 1.1-7 2-3.6 1.1-7.3 2-6.9 1.6-13.9 3-6.9 1.3-14 2.2-7 1-14 1.6-7.1 0.5-14.2 0.7-3.8 0.2-7.7 0.2-1.9 0-3.8-0.1-0.6 0-1.2 0-1.7 0-3.5-0.1-8.5-0.2-17-1-8.5-0.9-17-2.2-8.4-1.4-16.8-3.3-8.3-1.9-16.5-4.3l-0.9-0.3q-2.2-0.6-4.3-1.3-9.9-3.1-19.6-7-7.3-3-14.5-6.4 0 0 0 0 0 0 0 0 0 0-0.1 0 0 0 0 0-1.5-0.7-3-1.4-0.2-0.1-0.4-0.3-5.6-2.7-11.1-5.7c-3-7-7.4-8.4-10-14.6q-0.3-0.7-0.6-1.4-0.2-0.7-0.4-1.4-0.3-0.7-0.4-1.4-0.2-0.8-0.3-1.5 0 0 0-0.1c0.3 3.7-1.2-6.6 0 0q-0.1-0.2-0.1-0.4 0-0.6-0.1-1.4c-3.4-33.5-3.2-71.8-4.7-103.3q-0.1-3.1-0.3-5.9-0.1-0.9-0.1-1.8 0.1-0.3 0.2-0.6 0 0 0 0 0 0 0.1 0 0-0.1 0-0.1 0 0 0 0 0 0 0-0.1 0 0 0 0 0.1 0 0.1 0 0-0.1 0-0.1 0 0 0.1-0.1 0 0 0 0 0 0 0 0 0-0.1 0-0.1 0 0 0 0 0.1-0.2 0.3-0.4 0.1-0.1 0.2-0.2 0 0 0 0 0 0 0-0.1 0 0 0 0 0.1 0 0.1 0 0 0 0-0.1 0 0 0 0 0 0 0.1 0 0 0 0-0.1 0 0 0.1-0.1 0 0 0 0 0 0 0 0 0.1 0 0.1-0.1 0 0 0 0 0 0 0.1 0 0-0.1 0-0.1 0 0 0.1-0.1 0 0 0.1 0 0.1-0.1 0.2-0.3 0.2-0.1 0.3-0.2 0.1-0.1 0.3-0.2 0.1-0.1 0.3-0.2 0.2-0.2 0.4-0.3 0.4-0.2 0.8-0.4 0.4-0.2 0.8-0.4 0.4-0.2 0.8-0.4 0.4-0.2 0.8-0.3 0.6-0.2 1.2-0.4 0.2-0.1 0.4-0.2 0.3-0.1 0.7-0.2 1.7-0.5 3.7-0.9 0.2 0 0.5-0.1 0.3 0 0.7-0.1 0.5-0.1 1.1-0.2 4.4-0.7 10-1 0.5-0.1 1.1-0.1 0.6 0 1.2 0 0.5-0.1 1.1-0.1 0.5 0 1.1 0 1.5-0.1 3.1-0.1 4.5-0.1 9.5 0 2.3 0.1 4.8 0.2 0.1 0 0.3 0 2.1 0.1 4.3 0.2 1.5 0 3 0.1 1.5 0.1 3 0.2 1.1 0.1 2.3 0.2 1 0.1 2 0.1l0.9 0.1q0.7 0 1.5 0.1 1.6 0.1 3.3 0.3 1.6 0.1 3.3 0.3 1.7 0.1 3.5 0.3 0.1 0 0.3 0 1.5 0.2 3.1 0.3 0.4 0.1 0.8 0.1 1.5 0.2 3 0.3 0.4 0.1 0.9 0.1 1.2 0.2 2.4 0.3c1 0.1 2.1 0.2 3.1 0.4q1.3 0.1 2.5 0.2 1.9 0.3 3.8 0.5 0.8 0.1 1.5 0.2 5.5 0.7 11.2 1.5 8.6 1.2 17.4 2.6 8.8 1.5 17.7 3.1 2.2 0.4 4.5 0.8 1 0.2 2 0.4 1.8 0.3 3.5 0.6 1.8 0.3 3.5 0.7 2.1 0.4 4.2 0.8c9 1.8 18.1 3.7 26.9 5.7q2.2 0.5 4.3 1 4.4 1 8.6 2.1 1.2 0.2 2.3 0.5 2.9 0.7 5.8 1.5l0.3 0.1q2.1 0.5 4.1 1 4.8 1.3 9.5 2.6 3.1 0.8 6.1 1.7 4.5 1.3 8.8 2.6 1.1 0.4 2.1 0.7 3.2 1 6.2 2 2.4 0.7 4.7 1.5 2.3 0.8 4.5 1.6 1.5 0.5 2.9 1.1 2 0.7 3.9 1.5 0.6 0.2 1.2 0.4 0.4 0.2 0.8 0.3 0.7 0.3 1.4 0.6 0.7 0.3 1.4 0.6 0.6 0.2 1.3 0.5 0.7 0.3 1.3 0.6 0.6 0.2 1.1 0.5 1.1 0.4 2.1 0.9 0.5 0.2 1 0.5l0.8 0.3q0.2 0.1 0.4 0.2 0.3 0.2 0.7 0.4 0.9 0.4 1.7 0.8 1.1 0.6 2.2 1.1 1.1 0.6 2.1 1.1 0.1 0.1 0.3 0.2 0.2 0.2 0.4 0.3 0.8 0.4 1.5 0.9 1.5 0.8 2.7 1.7 0.3 0.2 0.6 0.4 0.9 0.7 1.8 1.3 0 0 0 0 0.3 0.3 0.6 0.5 0.2 0.2 0.4 0.4 0.8 0.6 1.5 1.3 0 0 0.1 0.1 0 0 0.1 0.1 0 0 0.1 0.1 0 0.1 0.1 0.1 0 0 0 0.1 0 0 0.1 0 0 0 0 0 0 0.1 0 0.1 0.3 0.3 0.6 0.6 0 0 0 0 0 0 0 0 0 0 0 0 0 0.1 0.1 0.1 0.3 0.4 0.6 0.8 0.2 0.2 0.3 0.4 0.2 0.3 0.4 0.5 0.1 0.3 0.2 0.5 0.1 0.1 0.2 0.3 0 0.1 0.1 0.2 0.1 0.2 0.1 0.3 0.1 0.2 0.2 0.3 0 0.1 0 0.2 0.1 0.1 0.1 0.2 0 0.1 0.1 0.2 0 0.1 0 0.2 0.1 0.1 0.1 0.2 0 0.1 0 0.2 0 0.1 0.1 0.2 0 0.1 0 0.2z"/>
	<path id="Layer" class="s7" d="m544 461.4c0 1.8 0 4.2-0.1 7.3q0 0.6-0.1 1.3c-0.1 4.2-0.2 9.5-0.4 15.4q0 0.5-0.1 1.1c-0.2 7.2-0.7 15.6-1.4 29-1.4 24.6-3.9 3.4-6.4 12-6.8-4.2-14.4-8.6-22.4-13.2q-2.2-1.2-4.4-2.4c-16.1-9-34-18.4-52.8-27.7q-1.1-0.6-2.2-1.1c-43-21.2-89.8-41.9-127.8-55.7-7.3-2.6-14.3-5-20.9-7.1-13.9-4.5-25.9-7.6-35.1-8.9-9.6-1.4-16.2-0.9-18.9 2q-0.1-3.1-0.3-5.9-0.1-0.9-0.1-1.8 0.1-0.3 0.2-0.5 0 0 0-0.1 0 0 0 0 0 0 0.1 0 0-0.1 0-0.1 0 0 0 0 0 0 0-0.1 0 0 0 0 0.1 0 0.1 0 0-0.1 0-0.1 0 0 0 0 0-0.1 0-0.1 0.1 0 0.1 0 0-0.1 0-0.1 0.1-0.2 0.3-0.4 0-0.1 0.1-0.1 0 0 0-0.1 0.1 0 0.1-0.1 0 0 0.1 0 0 0 0-0.1 0 0 0 0 0 0 0.1 0 0 0 0-0.1 0 0 0.1-0.1 0 0 0 0 0 0 0 0 0.1 0 0.1-0.1 0 0 0 0 0 0 0.1 0 0-0.1 0-0.1 0 0 0.1-0.1 0 0 0.1 0 0.1-0.1 0.2-0.3 0.2-0.1 0.3-0.2 0.1-0.1 0.3-0.2 0.1-0.1 0.3-0.2 0.2-0.2 0.4-0.3 0.4-0.2 0.8-0.4 0.4-0.2 0.8-0.4 0.4-0.2 0.8-0.4 0.4-0.2 0.8-0.3 0.6-0.2 1.2-0.4 0.2-0.1 0.4-0.2 0.3-0.1 0.7-0.2 1.7-0.5 3.7-0.9 0.6-0.1 1.2-0.2 0.5-0.1 1.1-0.2 4.4-0.7 10-1 0.5-0.1 1.1-0.1 0.6 0 1.2 0 0.5-0.1 1.1-0.1 0.5 0 1.1 0 1.5-0.1 3.1-0.1 4.5-0.1 9.5 0 2.3 0.1 4.8 0.2 0.1 0 0.3 0 2.1 0.1 4.3 0.2 1.5 0 3 0.1 1.5 0.1 3 0.2 1.1 0.1 2.3 0.2 1 0.1 2 0.1 1.2 0.1 2.4 0.2 1.6 0.1 3.3 0.3 1.6 0.1 3.3 0.3 1.7 0.1 3.5 0.3 0.1 0 0.3 0 1.5 0.2 3.1 0.3 8.8 0.9 18 2.1 5.5 0.7 11.2 1.5 8.6 1.2 17.4 2.6 8.8 1.5 17.7 3.1 2.2 0.4 4.5 0.8 2.8 0.5 5.5 1 1.8 0.3 3.5 0.7 2.1 0.4 4.2 0.8c9 1.8 18.1 3.7 26.9 5.7q2.2 0.5 4.3 1 4.4 1 8.6 2.1 1.2 0.3 2.3 0.5 2.9 0.8 5.8 1.5 0.1 0 0.3 0.1 2.1 0.5 4.1 1 4.8 1.3 9.5 2.6 3.1 0.8 6.1 1.7 4.5 1.3 8.8 2.6 1.1 0.4 2.1 0.7 3.2 1 6.2 2 2.4 0.7 4.7 1.5 2.3 0.8 4.5 1.6 1.5 0.5 2.9 1.1 2 0.7 3.9 1.5 0.6 0.2 1.2 0.4 1.1 0.4 2.2 0.9 0.7 0.3 1.4 0.6 0.6 0.2 1.3 0.5 0.7 0.3 1.3 0.6 0.6 0.2 1.1 0.5 1.1 0.4 2.1 0.9 0.5 0.2 1 0.5l0.8 0.3q0.2 0.1 0.4 0.2 1.2 0.6 2.4 1.2 1.1 0.6 2.2 1.1 1.2 0.7 2.4 1.3 0.2 0.2 0.4 0.3 0.8 0.4 1.5 0.9 1.5 0.8 2.7 1.7 1.3 0.9 2.4 1.7 0 0 0 0 0.5 0.5 1 0.9 0.8 0.6 1.5 1.3 0 0 0.1 0.1 0 0 0.1 0.1 0 0 0.1 0.1 0 0.1 0.1 0.1 0 0 0 0.1 0 0 0.1 0 0 0 0 0 0 0.1 0 0.1 0.3 0.3 0.7 0.7 0.3 0.4 0.6 0.8 0.2 0.2 0.3 0.4 0.2 0.3 0.4 0.5 0.1 0.3 0.2 0.5 0.1 0.1 0.2 0.3 0 0.1 0.1 0.2 0.1 0.2 0.1 0.3 0.1 0.2 0.2 0.3 0 0.1 0 0.2 0.1 0.1 0.1 0.2 0 0.1 0.1 0.2 0 0.1 0 0.2 0.1 0.1 0.1 0.2 0 0.1 0 0.2 0 0.1 0.1 0.2 0 0.1 0 0.2z"/>
</svg>