<?xml version="1.0" standalone="no"?><!DOCTYPE svg PUBLIC "-//W3C//DTD SVG 1.1//EN" "http://www.w3.org/Graphics/SVG/1.1/DTD/svg11.dtd"><svg t="1721717393447" class="icon" viewBox="0 0 1024 1024" version="1.1" xmlns="http://www.w3.org/2000/svg" p-id="7018" xmlns:xlink="http://www.w3.org/1999/xlink" width="200" height="200"><path d="M512 768a42.666667 42.666667 0 0 1 0 85.333333H243.2C156.288 853.333333 85.333333 784.341333 85.333333 698.666667v-373.333334C85.333333 239.658667 156.288 170.666667 243.2 170.666667h537.6C867.712 170.666667 938.666667 239.658667 938.666667 325.333333v205.354667a42.666667 42.666667 0 0 1-85.333334 0V325.333333C853.333333 287.317333 821.12 256 780.8 256H243.2C202.88 256 170.666667 287.317333 170.666667 325.333333v373.333334C170.666667 736.682667 202.88 768 243.2 768H512z m213.333333-85.333333v-64a42.666667 42.666667 0 1 1 85.333334 0V682.666667h64a42.666667 42.666667 0 1 1 0 85.333333H810.666667v64a42.666667 42.666667 0 1 1-85.333334 0V768h-64a42.666667 42.666667 0 1 1 0-85.333333H725.333333z m-340.181333-170.666667L294.656 421.504A42.666667 42.666667 0 0 1 354.986667 361.130667l105.6 105.6a64 64 0 0 1 0 90.538666L354.986667 662.869333a42.666667 42.666667 0 1 1-60.330667-60.373333L385.152 512z" fill="#2c2c2c" p-id="7019"></path></svg>