<svg t="1709087243309" class="icon" viewBox="0 0 1024 1024" version="1.1" xmlns="http://www.w3.org/2000/svg" p-id="5243" width="200" height="200"><path d="M654.4 702.4a32 32 0 0 1-22.624-54.624 192 192 0 0 0 0-271.552 32 32 0 0 1 45.248-45.248 256 256 0 0 1 0 362.048 31.776 31.776 0 0 1-22.624 9.376z" p-id="5244"></path><path d="M767.52 815.52a32 32 0 0 1-22.624-54.624 352 352 0 0 0 0-497.792 32 32 0 0 1 45.248-45.248 416 416 0 0 1 0 588.288 31.776 31.776 0 0 1-22.624 9.376zM528 224v576a31.744 31.744 0 0 1-16.32 27.84 30.304 30.304 0 0 1-15.68 4.16 32 32 0 0 1-16.32-4.48L327.04 736H240a128 128 0 0 1-128-128v-192a128 128 0 0 1 128-128h87.04l152.64-91.52A32 32 0 0 1 528 224z" p-id="5245"></path></svg>