<?xml version="1.0" standalone="no"?><!DOCTYPE svg PUBLIC "-//W3C//DTD SVG 1.1//EN" "http://www.w3.org/Graphics/SVG/1.1/DTD/svg11.dtd"><svg t="1715593205557" class="icon" viewBox="0 0 1024 1024" version="1.1" xmlns="http://www.w3.org/2000/svg" p-id="4585" xmlns:xlink="http://www.w3.org/1999/xlink" width="200" height="200"><path d="M774.4 320a44.8 44.8 0 0 1 44.8 44.8v512a44.8 44.8 0 0 1-89.6 0v-48.384a300.8 300.8 0 1 1 0-415.296V364.8a44.8 44.8 0 0 1 44.8-44.8zM512 409.6A211.2 211.2 0 1 0 512 832a211.2 211.2 0 0 0 0-422.4zM723.2 128a44.8 44.8 0 0 1 0 89.6H300.8a44.8 44.8 0 0 1 0-89.6h422.4z" p-id="4586"></path></svg>
