<?xml version="1.0" standalone="no"?><!DOCTYPE svg PUBLIC "-//W3C//DTD SVG 1.1//EN" "http://www.w3.org/Graphics/SVG/1.1/DTD/svg11.dtd"><svg t="1709178765181" class="icon" viewBox="0 0 1024 1024" version="1.1" xmlns="http://www.w3.org/2000/svg" p-id="25493" xmlns:xlink="http://www.w3.org/1999/xlink" width="200" height="200"><path d="M924.16 431.104c-23.552-46.08-50.176-97.792-68.608-145.92C807.424 156.672 724.48 25.6 474.112 25.6 214.016 25.6 48.128 251.904 48.128 407.04c0 138.752 61.952 240.64 102.912 308.224 17.92 29.696 31.744 52.736 31.744 65.536v195.584c0 11.264 14.848 21.504 29.184 21.504 16.896 0 31.744-7.168 31.744-21.504v-196.096c0-24.064-18.944-59.392-43.52-104.448-38.4-71.68-90.624-168.96-91.136-269.312-1.024-167.936 181.248-307.712 342.528-319.488v268.8C382.976 368.64 331.776 434.176 331.776 512c0 81.92 62.976 143.872 146.432 143.872 30.208 0 59.392-9.216 84.48-26.112l64.512 45.568c-2.048 29.696 23.552 55.296 52.736 55.296 29.184 0 53.248-24.064 53.248-52.736 0-35.84-34.816-60.416-68.096-50.688l-58.88-41.472c14.848-24.064 22.528-50.688 22.528-78.848 0-68.608-48.128-129.024-115.712-146.944v-271.36c144.384 10.752 242.176 85.504 283.136 216.576 11.264 36.864 47.616 101.888 76.8 154.624 18.944 34.304 40.96 73.728 42.496 81.408-4.608 9.728-54.784 34.816-99.328 52.736l-5.12 2.048v124.928c0 1.024-0.512 26.624-27.648 54.272-25.088 25.6-83.456 27.648-83.968 27.648h-68.096v174.08l0.512 1.536c3.072 7.168 12.288 19.968 28.16 19.968 22.528 0 30.72-14.336 32.256-21.504v-112.64c19.968 0.512 69.12-2.048 115.712-31.744 64.512-40.96 63.488-108.544 63.488-111.616v-83.968c23.04-8.192 99.84-37.888 104.448-79.872 2.048-19.968-16.896-59.392-51.712-125.952z m-356.864 75.264c0 49.152-39.936 88.576-89.088 88.576-49.152 0-89.088-39.936-89.088-88.576 0-49.152 39.936-89.088 89.088-89.088 48.64 0.512 89.088 40.448 89.088 89.088z m0 0" p-id="25494"></path></svg>