<?xml version="1.0" standalone="no"?><!DOCTYPE svg PUBLIC "-//W3C//DTD SVG 1.1//EN" "http://www.w3.org/Graphics/SVG/1.1/DTD/svg11.dtd"><svg t="1715390234997" class="icon" viewBox="0 0 1024 1024" version="1.1" xmlns="http://www.w3.org/2000/svg" p-id="5287" xmlns:xlink="http://www.w3.org/1999/xlink" width="100" height="100"><path d="M0 196h1024v20H0zM1023 414h-33v-8h33v8z m-66 0h-33v-8h33v8z m-66 0h-33v-8h33v8z m-66 0h-33v-8h33v8z m-66 0h-33v-8h33v8z m-66 0h-33v-8h33v8z m-66 0h-33v-8h33v8z m-66 0h-33v-8h33v8z m-66 0h-33v-8h33v8z m-66 0h-33v-8h33v8z m-66 0h-33v-8h33v8z m-66 0h-33v-8h33v8z m-66 0h-33v-8h33v8z m-66 0h-33v-8h33v8z m-66 0H66v-8h33v8z m-66 0H0v-8h33v8zM1023 618h-33v-8h33v8z m-66 0h-33v-8h33v8z m-66 0h-33v-8h33v8z m-66 0h-33v-8h33v8z m-66 0h-33v-8h33v8z m-66 0h-33v-8h33v8z m-66 0h-33v-8h33v8z m-66 0h-33v-8h33v8z m-66 0h-33v-8h33v8z m-66 0h-33v-8h33v8z m-66 0h-33v-8h33v8z m-66 0h-33v-8h33v8z m-66 0h-33v-8h33v8z m-66 0h-33v-8h33v8z m-66 0H66v-8h33v8z m-66 0H0v-8h33v8zM0 808h1024v20H0z" p-id="5288"></path></svg>
