<svg version="1.2" xmlns="http://www.w3.org/2000/svg" viewBox="0 0 990 632" width="78" height="50"><path  d="m0 0h1024v20h-1024zm1023 218h-33v-8h33zm-66 0h-33v-8h33zm-66 0h-33v-8h33zm-66 0h-33v-8h33zm-66 0h-33v-8h33zm-66 0h-33v-8h33zm-66 0h-33v-8h33zm-66 0h-33v-8h33zm-66 0h-33v-8h33zm-66 0h-33v-8h33zm-66 0h-33v-8h33zm-66 0h-33v-8h33zm-66 0h-33v-8h33zm-66 0h-33v-8h33zm-66 0h-33v-8h33zm-66 0h-33v-8h33zm990 204h-33v-8h33zm-66 0h-33v-8h33zm-66 0h-33v-8h33zm-66 0h-33v-8h33zm-66 0h-33v-8h33zm-66 0h-33v-8h33zm-66 0h-33v-8h33zm-66 0h-33v-8h33zm-66 0h-33v-8h33zm-66 0h-33v-8h33zm-66 0h-33v-8h33zm-66 0h-33v-8h33zm-66 0h-33v-8h33zm-66 0h-33v-8h33zm-66 0h-33v-8h33zm-66 0h-33v-8h33zm-33 190h1024v20h-1024z"/></svg>
