<?xml version="1.0" standalone="no"?><!DOCTYPE svg PUBLIC "-//W3C//DTD SVG 1.1//EN" "http://www.w3.org/Graphics/SVG/1.1/DTD/svg11.dtd"><svg t="1709049027146" class="icon" viewBox="0 0 1024 1024" version="1.1" xmlns="http://www.w3.org/2000/svg" p-id="2445" xmlns:xlink="http://www.w3.org/1999/xlink" width="200" height="200"><path d="M924.5 337.9c-22.6-53.3-54.8-101.2-95.9-142.3-41.1-41.1-89-73.4-142.3-95.9C631.1 76.4 572.4 64.5 512 64.5c-60.4 0-119.1 11.8-174.3 35.2-53.3 22.6-101.2 54.8-142.3 95.9s-73.4 89-95.9 142.3c-23.4 55.2-35.2 113.9-35.2 174.3s11.8 119.1 35.2 174.3c22.6 53.3 54.8 101.2 95.9 142.3s89 73.4 142.3 95.9c55.2 23.4 113.9 35.2 174.3 35.2 60.4 0 119.1-11.8 174.3-35.2 53.3-22.6 101.2-54.8 142.3-95.9 41.1-41.1 73.4-89 95.9-142.3 23.4-55.2 35.2-113.9 35.2-174.3s-11.8-119-35.2-174.3z m-146.8 440c-71 71-165.3 110-265.7 110-100.4 0-194.7-39.1-265.7-110-71-71-110-165.3-110-265.7s39.1-194.7 110-265.7 165.3-110 265.7-110c100.4 0 194.7 39.1 265.7 110s110 165.3 110 265.7-39.1 194.7-110 265.7z" p-id="2446"></path><path d="M706.7 464.8L447.6 300.6c-17.3-11-39.2-11.6-57.1-1.8-17.9 9.9-29.1 28.7-29.1 49.2v328c0 20.5 11.1 39.3 29.1 49.2 8.5 4.7 17.8 7 27.1 7 10.4 0 20.9-2.9 30-8.7l259.1-163.8c16.4-10.3 26.1-28.1 26.2-47.5-0.1-19.3-9.9-37.1-26.2-47.4zM433.4 647.3V376.8L647 512.2 433.4 647.3z" p-id="2447"></path></svg>