<?xml version="1.0" standalone="no"?><!DOCTYPE svg PUBLIC "-//W3C//DTD SVG 1.1//EN" "http://www.w3.org/Graphics/SVG/1.1/DTD/svg11.dtd"><svg t="1709049096869" class="icon" viewBox="0 0 1024 1024" version="1.1" xmlns="http://www.w3.org/2000/svg" p-id="3480" xmlns:xlink="http://www.w3.org/1999/xlink" width="200" height="200"><path d="M183.2 802.2l30.2-143.1 431.1-431.7c17.3-17.3 38.4-29.9 61-36.6 41.1-12.1 77.8-3.5 106.1 24.9 28.3 28.3 37 65 25 106.1-6.6 22.7-19.3 43.8-36.5 61.1L368.6 815l-151.5 23.1c-1.5 0.2-3 0.3-4.5 0.3-8.2 0-16.1-3.4-21.8-9.4-6.8-7.1-9.6-17.1-7.6-26.8m607.7-473.5c3-5.8 5.5-11.9 7.3-18.1 7.9-26.9 3-48.7-14.8-66.6-17.9-17.9-39.6-22.7-66.5-14.8-6 1.8-11.9 4.1-17.5 7l91.5 92.5z m-520.6 330l37 37.1 0.7-0.8 395.5-397.2 0.3-0.3-34.4-34.5-1.9-1.9m98.4 99.4l-1.7-1.9-32.3-32.6-0.1 0.1-395.4 397.2-1 1 33.5 33.8M234.7 751.7l37.1 37.5 62.3-9.5-86.7-87.9-12.7 59.9m37.1 37.6" p-id="3481"></path></svg>