<?xml version="1.0" standalone="no"?><!DOCTYPE svg PUBLIC "-//W3C//DTD SVG 1.1//EN" "http://www.w3.org/Graphics/SVG/1.1/DTD/svg11.dtd"><svg t="1715045974868" class="icon" viewBox="0 0 1052 1024" version="1.1" xmlns="http://www.w3.org/2000/svg" p-id="7905" xmlns:xlink="http://www.w3.org/1999/xlink" width="205.46875" height="200"><path d="M301.511111 728.177778c-5.688889 0-14.222222-2.844444-19.911111-5.688889C162.133333 676.977778 85.333333 600.177778 85.333333 512c0-142.222222 204.8-256 455.111111-256s455.111111 113.777778 455.111112 256c0 108.088889-116.622222 199.111111-284.444445 236.088889-5.688889 0-11.377778 2.844444-19.911111 5.688889-2.844444 0-5.688889 2.844444-8.533333 5.688889-5.688889 5.688889-2.844444 14.222222 2.844444 19.911111l31.288889 25.6c17.066667 14.222222 19.911111 42.666667 5.688889 59.733333-14.222222 17.066667-42.666667 19.911111-59.733333 5.688889l-133.688889-108.088889c-17.066667-14.222222-19.911111-42.666667-5.688889-59.733333l108.088889-133.688889c14.222222-17.066667 42.666667-19.911111 59.733333-5.688889 17.066667 14.222222 19.911111 42.666667 5.688889 59.733333l-17.066667 19.911111c-2.844444 2.844444-2.844444 8.533333-2.844444 11.377778 2.844444 8.533333 8.533333 11.377778 17.066666 11.377778 5.688889 0 11.377778-2.844444 17.066667-2.844444 122.311111-31.288889 199.111111-93.866667 199.111111-150.755556 0-79.644444-159.288889-170.666667-369.777778-170.666667S170.666667 429.511111 170.666667 512c0 48.355556 54.044444 96.711111 142.222222 130.844444 17.066667 5.688889 31.288889 22.755556 31.288889 39.822223 0 25.6-19.911111 45.511111-42.666667 45.511111z" p-id="7906" fill="#ffffff"></path></svg>
